Coordinates
version=1
nRows=16
nColumns=22
inDegrees=yes

Units are S.I. units (second, meters, Newtons, ...)
If the header above contains a line with 'inDegrees', this indicates whether rotational values are in degrees (yes) or radians (no).

endheader
time	pelvis_tilt	pelvis_list	pelvis_rotation	pelvis_tx	pelvis_ty	pelvis_tz	hip_flexion_r	hip_adduction_r	hip_rotation_r	knee_angle_r	ankle_angle_r	subtalar_angle_r	hip_flexion_l	hip_adduction_l	hip_rotation_l	knee_angle_l	ankle_angle_l	subtalar_angle_l	lumbar_extension	lumbar_bending	lumbar_rotation
      0.01000000	     -1.33401490	     -4.94347800	      3.48770246	      1.05545897	      1.01265120	      0.16546139	      0.97127797	      3.43953063	     -2.97064247	    -12.02341320	      9.43595036	      1.88707903	     -1.84814012	     -7.30061071	     -7.13441220	     -8.47343278	     11.82600677	      1.10209145	     -1.42336774	      0.87072150	      0.06817908
      0.02000000	     -1.33918976	     -4.94061334	      3.50195569	      1.05555094	      1.01262017	      0.16540321	      0.97555705	      3.43427995	     -2.97216508	    -12.03473403	      9.43846197	      1.89428537	     -1.87169687	     -7.29550267	     -7.16919570	     -8.42025490	     11.82605438	      1.11166709	     -1.43152361	      0.87797661	      0.03792728
      0.03000000	     -1.32312608	     -4.90761750	      3.49870175	      1.05570136	      1.01262336	      0.16534327	      0.95570543	      3.39454076	     -2.99145381	    -12.05228818	      9.48006199	      1.91641344	     -1.94230607	     -7.25516800	     -7.23743445	     -8.33583604	     11.78419295	      1.15090175	     -1.46468614	      0.85605292	      0.04274106
      0.04000000	     -1.33237028	     -4.89853913	      3.51117606	      1.05585530	      1.01258112	      0.16528505	      0.96093503	      3.38262322	     -2.98446726	    -12.06576992	      9.48639713	      1.91897191	     -1.96752956	     -7.24237422	     -7.27481248	     -8.27971607	     11.78970700	      1.15502996	     -1.46848451	      0.86016567	      0.00039159
      0.05000000	     -1.30698380	     -4.85803589	      3.50648864	      1.05608436	      1.01259016	      0.16523892	      0.92322455	      3.33653338	     -2.99747451	    -12.07887234	      9.54247035	      1.92899715	     -2.04863750	     -7.19519058	     -7.33421684	     -8.20615130	     11.75445738	      1.18065186	     -1.50952748	      0.83042526	     -0.00252462
      0.06000000	     -1.31086904	     -4.85167274	      3.51140879	      1.05633011	      1.01255320	      0.16519373	      0.91569145	      3.32805213	     -2.99021624	    -12.08840945	      9.54796885	      1.93039010	     -2.07528526	     -7.18573330	     -7.35811924	     -8.17402489	     11.76160472	      1.18273334	     -1.51014672	      0.84115436	     -0.04257460
      0.07000000	     -1.25918566	     -4.83167818	      3.51770969	      1.05664051	      1.01259152	      0.16514739	      0.83416673	      3.30837251	     -2.99919670	    -12.07860174	      9.59708925	      1.93762213	     -2.16616153	     -7.16505924	     -7.38772658	     -8.14300705	     11.76115019	      1.19933534	     -1.57129272	      0.83647726	     -0.06519500
      0.08000000	     -1.25789159	     -4.82856847	      3.51651057	      1.05691667	      1.01256509	      0.16511559	      0.82043055	      3.30431039	     -2.98664045	    -12.08943134	      9.59622989	      1.93935678	     -2.18838778	     -7.16024907	     -7.39656079	     -8.13574504	     11.76765029	      1.20079862	     -1.57546222	      0.85095310	     -0.10093754
      0.09000000	     -1.23913765	     -4.82715582	      3.52208796	      1.05719298	      1.01256271	      0.16507020	      0.78400915	      3.30364044	     -2.97071409	    -12.09361566	      9.61326952	      1.94090330	     -2.21953620	     -7.15937559	     -7.40822996	     -8.14531618	     11.78294107	      1.20277771	     -1.59970841	      0.86820539	     -0.14261285
      0.10000000	     -1.19498625	     -4.83001564	      3.52233379	      1.05745656	      1.01260044	      0.16502204	      0.71500322	      3.30790665	     -2.96446913	    -12.08129644	      9.63222375	      1.94980391	     -2.27505119	     -7.16436819	     -7.41585529	     -8.16400280	     11.81011267	      1.20898924	     -1.65753693	      0.89378335	     -0.16366111
      0.11000000	     -1.19357863	     -4.82698402	      3.51298598	      1.05766486	      1.01258904	      0.16498600	      0.70923972	      3.30281383	     -2.94766342	    -12.09768444	      9.63103840	      1.95120802	     -2.28521364	     -7.15855850	     -7.41854876	     -8.17553645	     11.81107114	      1.20999723	     -1.67144284	      0.91069103	     -0.19317066
      0.12000000	     -1.18291967	     -4.82505368	      3.50881519	      1.05784725	      1.01258982	      0.16496080	      0.69373581	      3.30086463	     -2.92618290	    -12.11321536	      9.64062979	      1.95314658	     -2.29332964	     -7.15756971	     -7.42866792	     -8.20594977	     11.82070873	      1.21004342	     -1.69789916	      0.92536849	     -0.22002085
      0.13000000	     -1.18967670	     -4.82272806	      3.48947414	      1.05800944	      1.01257079	      0.16497895	      0.69222349	      3.29773404	     -2.92785434	    -12.11181433	      9.64252143	      1.95323532	     -2.29516288	     -7.15395916	     -7.42762651	     -8.21538971	     11.82207915	      1.21011794	     -1.70823722	      0.93524842	     -0.22713483
      0.14000000	     -1.18019086	     -4.81827524	      3.46897990	      1.05808939	      1.01256045	      0.16503232	      0.68758240	      3.29488410	     -2.92315867	    -12.13146723	      9.65881870	      1.95256215	     -2.28796798	     -7.15441856	     -7.45834663	     -8.26761912	     11.84207116	      1.20833669	     -1.75133506	      0.94036333	     -0.24062562
      0.15000000	     -1.19117329	     -4.81606851	      3.44036437	      1.05817797	      1.01252655	      0.16513445	      0.69176904	      3.29558800	     -2.93270772	    -12.12223846	      9.66146934	      1.95230075	     -2.28522201	     -7.15453943	     -7.45872423	     -8.27220089	     11.84431236	      1.20836815	     -1.76728691	      0.94076740	     -0.24480370
      0.16000000	     -1.20981349	     -4.80141091	      3.38875416	      1.05820837	      1.01246214	      0.16527800	      0.72408305	      3.27928857	     -2.97678953	    -12.14521075	      9.68932227	      1.93839722	     -2.25286740	     -7.14485368	     -7.54476270	     -8.32091723	     11.88382593	      1.20999000	     -1.78314219	      0.92556620	     -0.21440066
